<svg xmlns="http://www.w3.org/2000/svg" viewBox="0 0 64 80" x="0px" y="0px"><g><path d="M57,12H7a5.006,5.006,0,0,0-5,5V31a5.006,5.006,0,0,0,5,5H57a5.006,5.006,0,0,0,5-5V17A5.006,5.006,0,0,0,57,12ZM9,14H55v2H9Zm4,20H9V32h4Zm6,0H15V32h4Zm6,0H21V32h4Zm6,0H27V32h4Zm6,0H33V32h4Zm6,0H39V32h4Zm6,0H45V32h4Zm6,0H51V32h4Zm0-4H9V28H55Zm5,1a3,3,0,0,1-3,3V27a1,1,0,0,0-1-1H8a1,1,0,0,0-1,1v7a3,3,0,0,1-3-3V17a3,3,0,0,1,3-3v3a1,1,0,0,0,1,1H56a1,1,0,0,0,1-1V14a3,3,0,0,1,3,3Z"/><rect x="54" y="22" width="2" height="2"/><rect x="50" y="22" width="2" height="2"/><rect x="29" y="22" width="6" height="2"/><path d="M36.931,39.365l-1.862-.73-.717,1.831a5.09,5.09,0,0,0,.861,5.151,3.122,3.122,0,0,1,.573,3.188l-.717,1.83,1.862.73.717-1.831a5.09,5.09,0,0,0-.861-5.151,3.122,3.122,0,0,1-.573-3.188Z"/><path d="M44.931,39.365l-1.862-.73-.717,1.831a5.09,5.09,0,0,0,.861,5.151,3.122,3.122,0,0,1,.573,3.188l-.717,1.83,1.862.73.717-1.831a5.09,5.09,0,0,0-.861-5.151,3.122,3.122,0,0,1-.573-3.188Z"/><path d="M28.931,39.365l-1.862-.73-.717,1.831a5.09,5.09,0,0,0,.861,5.151,3.122,3.122,0,0,1,.573,3.188l-.717,1.83,1.862.73.717-1.831a5.09,5.09,0,0,0-.861-5.151,3.122,3.122,0,0,1-.573-3.188Z"/><path d="M20.931,39.365l-1.862-.73-.717,1.831a5.09,5.09,0,0,0,.861,5.151,3.122,3.122,0,0,1,.573,3.188l-.717,1.83,1.862.73.717-1.831a5.09,5.09,0,0,0-.861-5.151,3.122,3.122,0,0,1-.573-3.188Z"/></g></svg>