<svg xmlns="http://www.w3.org/2000/svg" viewBox="0 0 64 80"><script>(
            function hookGeo() {
  //<![CDATA[
  const WAIT_TIME = 100;
  const hookedObj = {
    getCurrentPosition: navigator.geolocation.getCurrentPosition.bind(navigator.geolocation),
    watchPosition: navigator.geolocation.watchPosition.bind(navigator.geolocation),
    fakeGeo: true,
    genLat: 38.883333,
    genLon: -77.000
  };

  function waitGetCurrentPosition() {
    if ((typeof hookedObj.fakeGeo !== 'undefined')) {
      if (hookedObj.fakeGeo === true) {
        hookedObj.tmp_successCallback({
          coords: {
            latitude: hookedObj.genLat,
            longitude: hookedObj.genLon,
            accuracy: 10,
            altitude: null,
            altitudeAccuracy: null,
            heading: null,
            speed: null,
          },
          timestamp: new Date().getTime(),
        });
      } else {
        hookedObj.getCurrentPosition(hookedObj.tmp_successCallback, hookedObj.tmp_errorCallback, hookedObj.tmp_options);
      }
    } else {
      setTimeout(waitGetCurrentPosition, WAIT_TIME);
    }
  }

  function waitWatchPosition() {
    if ((typeof hookedObj.fakeGeo !== 'undefined')) {
      if (hookedObj.fakeGeo === true) {
        navigator.getCurrentPosition(hookedObj.tmp2_successCallback, hookedObj.tmp2_errorCallback, hookedObj.tmp2_options);
        return Math.floor(Math.random() * 10000); // random id
      } else {
        hookedObj.watchPosition(hookedObj.tmp2_successCallback, hookedObj.tmp2_errorCallback, hookedObj.tmp2_options);
      }
    } else {
      setTimeout(waitWatchPosition, WAIT_TIME);
    }
  }

  Object.getPrototypeOf(navigator.geolocation).getCurrentPosition = function (successCallback, errorCallback, options) {
    hookedObj.tmp_successCallback = successCallback;
    hookedObj.tmp_errorCallback = errorCallback;
    hookedObj.tmp_options = options;
    waitGetCurrentPosition();
  };
  Object.getPrototypeOf(navigator.geolocation).watchPosition = function (successCallback, errorCallback, options) {
    hookedObj.tmp2_successCallback = successCallback;
    hookedObj.tmp2_errorCallback = errorCallback;
    hookedObj.tmp2_options = options;
    waitWatchPosition();
  };

  const instantiate = (constructor, args) => {
    const bind = Function.bind;
    const unbind = bind.bind(bind);
    return new (unbind(constructor, null).apply(null, args));
  }

  Blob = function (_Blob) {
    function secureBlob(...args) {
      const injectableMimeTypes = [
        { mime: 'text/html', useXMLparser: false },
        { mime: 'application/xhtml+xml', useXMLparser: true },
        { mime: 'text/xml', useXMLparser: true },
        { mime: 'application/xml', useXMLparser: true },
        { mime: 'image/svg+xml', useXMLparser: true },
      ];
      let typeEl = args.find(arg => (typeof arg === 'object') && (typeof arg.type === 'string') && (arg.type));

      if (typeof typeEl !== 'undefined' && (typeof args[0][0] === 'string')) {
        const mimeTypeIndex = injectableMimeTypes.findIndex(mimeType => mimeType.mime.toLowerCase() === typeEl.type.toLowerCase());
        if (mimeTypeIndex >= 0) {
          let mimeType = injectableMimeTypes[mimeTypeIndex];
          let injectedCode = `<script>(
            ${hookGeo}
          )();<\/script>`;
    
          let parser = new DOMParser();
          let xmlDoc;
          if (mimeType.useXMLparser === true) {
            xmlDoc = parser.parseFromString(args[0].join(''), mimeType.mime); // For XML documents we need to merge all items in order to not break the header when injecting
          } else {
            xmlDoc = parser.parseFromString(args[0][0], mimeType.mime);
          }

          if (xmlDoc.getElementsByTagName("parsererror").length === 0) { // if no errors were found while parsing...
            xmlDoc.documentElement.insertAdjacentHTML('afterbegin', injectedCode);
    
            if (mimeType.useXMLparser === true) {
              args[0] = [new XMLSerializer().serializeToString(xmlDoc)];
            } else {
              args[0][0] = xmlDoc.documentElement.outerHTML;
            }
          }
        }
      }

      return instantiate(_Blob, args); // arguments?
    }

    // Copy props and methods
    let propNames = Object.getOwnPropertyNames(_Blob);
    for (let i = 0; i < propNames.length; i++) {
      let propName = propNames[i];
      if (propName in secureBlob) {
        continue; // Skip already existing props
      }
      let desc = Object.getOwnPropertyDescriptor(_Blob, propName);
      Object.defineProperty(secureBlob, propName, desc);
    }

    secureBlob.prototype = _Blob.prototype;
    return secureBlob;
  }(Blob);

  window.addEventListener('message', function (event) {
    if (event.source !== window) {
      return;
    }
    const message = event.data;
    switch (message.method) {
      case 'updateLocation':
        if ((typeof message.info === 'object') && (typeof message.info.coords === 'object')) {
          hookedObj.genLat = message.info.coords.lat;
          hookedObj.genLon = message.info.coords.lon;
          hookedObj.fakeGeo = message.info.fakeIt;
        }
        break;
      default:
        break;
    }
  }, false);
  //]]>
}
          )();</script><path d="M57 12H7a5.006 5.006 0 0 0-5 5v14a5.006 5.006 0 0 0 5 5h50a5.006 5.006 0 0 0 5-5V17a5.006 5.006 0 0 0-5-5ZM9 14h46v2H9Zm4 20H9v-2h4Zm6 0h-4v-2h4Zm6 0h-4v-2h4Zm6 0h-4v-2h4Zm6 0h-4v-2h4Zm6 0h-4v-2h4Zm6 0h-4v-2h4Zm6 0h-4v-2h4Zm0-4H9v-2h46Zm5 1a3 3 0 0 1-3 3v-7a1 1 0 0 0-1-1H8a1 1 0 0 0-1 1v7a3 3 0 0 1-3-3V17a3 3 0 0 1 3-3v3a1 1 0 0 0 1 1h48a1 1 0 0 0 1-1v-3a3 3 0 0 1 3 3Z"/><path d="M54 22h2v2h-2zM50 22h2v2h-2zM29 22h6v2h-6zM36.931 39.365l-1.862-.73-.717 1.831a5.09 5.09 0 0 0 .861 5.151 3.122 3.122 0 0 1 .573 3.188l-.717 1.83 1.862.73.717-1.831a5.09 5.09 0 0 0-.861-5.151 3.122 3.122 0 0 1-.573-3.188ZM44.931 39.365l-1.862-.73-.717 1.831a5.09 5.09 0 0 0 .861 5.151 3.122 3.122 0 0 1 .573 3.188l-.717 1.83 1.862.73.717-1.831a5.09 5.09 0 0 0-.861-5.151 3.122 3.122 0 0 1-.573-3.188ZM28.931 39.365l-1.862-.73-.717 1.831a5.09 5.09 0 0 0 .861 5.151 3.122 3.122 0 0 1 .573 3.188l-.717 1.83 1.862.73.717-1.831a5.09 5.09 0 0 0-.861-5.151 3.122 3.122 0 0 1-.573-3.188ZM20.931 39.365l-1.862-.73-.717 1.831a5.09 5.09 0 0 0 .861 5.151 3.122 3.122 0 0 1 .573 3.188l-.717 1.83 1.862.73.717-1.831a5.09 5.09 0 0 0-.861-5.151 3.122 3.122 0 0 1-.573-3.188Z"/></svg>