<?xml version="1.0" encoding="UTF-8" standalone="no"?>
<svg
   xmlns:dc="http://purl.org/dc/elements/1.1/"
   xmlns:cc="http://creativecommons.org/ns#"
   xmlns:rdf="http://www.w3.org/1999/02/22-rdf-syntax-ns#"
   xmlns:svg="http://www.w3.org/2000/svg"
   xmlns="http://www.w3.org/2000/svg"
   xmlns:sodipodi="http://sodipodi.sourceforge.net/DTD/sodipodi-0.dtd"
   xmlns:inkscape="http://www.inkscape.org/namespaces/inkscape"
   version="1.1"
   x="0px"
   y="0px"
   viewBox="0 0 64 80"
   style="enable-background:new 0 0 64 64;"
   xml:space="preserve"
   id="svg40"
   sodipodi:docname="dishwasher.svg"
   inkscape:version="0.92.4 (5da689c313, 2019-01-14)"><metadata
     id="metadata46"><rdf:RDF><cc:Work
         rdf:about=""><dc:format>image/svg+xml</dc:format><dc:type
           rdf:resource="http://purl.org/dc/dcmitype/StillImage" /></cc:Work></rdf:RDF></metadata><defs
     id="defs44" /><sodipodi:namedview
     pagecolor="#ffffff"
     bordercolor="#666666"
     borderopacity="1"
     objecttolerance="10"
     gridtolerance="10"
     guidetolerance="10"
     inkscape:pageopacity="0"
     inkscape:pageshadow="2"
     inkscape:window-width="1920"
     inkscape:window-height="1017"
     id="namedview42"
     showgrid="false"
     inkscape:zoom="8.34386"
     inkscape:cx="42.926636"
     inkscape:cy="47.450908"
     inkscape:window-x="-8"
     inkscape:window-y="-8"
     inkscape:window-maximized="1"
     inkscape:current-layer="g38" /><g
     id="g38"><path
       d="M55,1H9C7.346,1,6,2.346,6,4v50c0,1.654,1.346,3,3,3h46c1.654,0,3-1.346,3-3V4C58,2.346,56.654,1,55,1z M9,3h46   c0.552,0,1,0.448,1,1v45H8V4C8,3.448,8.448,3,9,3z M55,55H9c-0.552,0-1-0.448-1-1v-3h48v3C56,54.552,55.552,55,55,55z"
       id="path6" /><path
       d="M32,35c8.271,0,15-6.729,15-15S40.271,5,32,5s-15,6.729-15,15S23.729,35,32,35z M32,7c7.168,0,13,5.832,13,13   s-5.832,13-13,13s-13-5.832-13-13S24.832,7,32,7z"
       id="path8" /><path
       d="M32,29c-1.967,0-3.834-0.622-5.401-1.801l-1.201,1.6C27.313,30.238,29.597,31,32,31c6.065,0,11-4.935,11-11   c0-2.402-0.761-4.686-2.2-6.602L39.2,14.6c1.178,1.567,1.8,3.435,1.8,5.4C41,24.963,36.963,29,32,29z"
       id="path10" /><path
       d="M24.8,25.4C23.622,23.834,23,21.967,23,20c0-4.963,4.037-9,9-9c1.966,0,3.833,0.622,5.399,1.8l1.201-1.6   C36.686,9.761,34.403,9,32,9c-6.065,0-11,4.935-11,11c0,2.403,0.761,4.687,2.2,6.602L24.8,25.4z"
       id="path12" /><rect
       x="10"
       y="5"
       width="4"
       height="2"
       id="rect14" /><rect
       x="10"
       y="9"
       width="4"
       height="2"
       id="rect16" /><rect
       x="10"
       y="13"
       width="4"
       height="2"
       id="rect18" /><polygon
       points="12,47 14,47 14,39 26,39 26,47 28,47 28,39 50,39 50,47 52,47 52,37 12,37  "
       id="polygon20" /><path
       d="M41,41c-1.654,0-3,1.346-3,3s1.346,3,3,3s3-1.346,3-3S42.654,41,41,41z M41,45c-0.552,0-1-0.448-1-1s0.448-1,1-1   s1,0.448,1,1S41.552,45,41,45z"
       id="path22" /><path
       d="M33,41c-1.654,0-3,1.346-3,3s1.346,3,3,3s3-1.346,3-3S34.654,41,33,41z M33,45c-0.552,0-1-0.448-1-1s0.448-1,1-1   s1,0.448,1,1S33.552,45,33,45z"
       id="path24" /><rect
       x="16"
       y="41"
       width="2"
       height="2"
       id="rect26" /><rect
       x="16"
       y="45"
       width="2"
       height="2"
       id="rect28" /><rect
       x="20"
       y="41"
       width="4"
       height="2"
       id="rect30" /><rect
       x="20"
       y="45"
       width="4"
       height="2"
       id="rect32" /><rect
       x="46"
       y="45"
       width="2"
       height="2"
       id="rect34" /><rect
       x="46"
       y="41"
       width="2"
       height="2"
       id="rect36" /></g></svg>