<svg xmlns="http://www.w3.org/2000/svg" xmlns:xlink="http://www.w3.org/1999/xlink" version="1.1" x="0px" y="0px" viewBox="0 0 100 125" style="enable-background:new 0 0 100 100;" xml:space="preserve"><g><path d="M89.41809,94.92375H10.58191c-0.92957,0-1.68226-0.75368-1.68226-1.68324V1.68324C8.89965,0.75368,9.65235,0,10.58191,0   h78.83618c0.92957,0,1.68226,0.75368,1.68226,1.68324v91.55727C91.10035,94.17007,90.34766,94.92375,89.41809,94.92375z    M12.26417,91.55727h75.47166V3.36648H12.26417V91.55727z"/><path d="M84.1119,100H15.94313c-0.92957,0-1.68226-0.75368-1.68226-1.68324v-5.07625c0-0.92957,0.75269-1.68324,1.68226-1.68324   H84.1119c0.92957,0,1.68226,0.75368,1.68226,1.68324v5.07625C85.79416,99.24632,85.04147,100,84.1119,100z M17.62538,96.63352   h64.80426v-1.70977H17.62538V96.63352z"/><path d="M49.99902,94.92375c-0.92957,0-1.68225-0.75368-1.68225-1.68324V1.68324C48.31676,0.75368,49.06945,0,49.99902,0   s1.68226,0.75368,1.68226,1.68324v91.55727C51.68127,94.17007,50.92858,94.92375,49.99902,94.92375z"/><path d="M34.88228,62.29365H18.51171c-0.92957,0-1.68226-0.75367-1.68226-1.68324V37.44989   c0-0.92957,0.75269-1.68324,1.68226-1.68324h16.37057c0.92957,0,1.68225,0.75367,1.68225,1.68324v23.16052   C36.56454,61.53997,35.81185,62.29365,34.88228,62.29365z M20.19397,58.92717h13.00605V39.13313H20.19397V58.92717z"/><path d="M34.88228,46.60601H18.51171c-0.92957,0-1.68226-0.75368-1.68226-1.68324s0.75269-1.68324,1.68226-1.68324h16.37057   c0.92957,0,1.68225,0.75367,1.68225,1.68324S35.81185,46.60601,34.88228,46.60601z"/><path d="M56.21708,74.15887c-0.92957,0-1.68226-0.75368-1.68226-1.68324V27.98031c0-0.92957,0.75269-1.68324,1.68226-1.68324   s1.68225,0.75368,1.68225,1.68324v44.49532C57.89934,73.4052,57.14665,74.15887,56.21708,74.15887z"/><path d="M43.83794,74.15887c-0.92957,0-1.68225-0.75368-1.68225-1.68324V27.98031c0-0.92957,0.75269-1.68324,1.68225-1.68324   s1.68226,0.75368,1.68226,1.68324v44.49532C45.5202,73.4052,44.76751,74.15887,43.83794,74.15887z"/></g></svg>