<svg xmlns="http://www.w3.org/2000/svg" xmlns:xlink="http://www.w3.org/1999/xlink" version="1.1" x="0px" y="0px" viewBox="0 0 64 80" style="enable-background:new 0 0 64 64;" xml:space="preserve"><g><path d="M62,25h-5v-3c0-0.553-0.447-1-1-1h-1v-3c0-0.553-0.447-1-1-1h-3v2h2v2h-6v-4h-2v4h-6v-2h2v-2h-3c-0.553,0-1,0.447-1,1v3h-1   c-0.553,0-1,0.447-1,1v3h-6v-3c0-0.553-0.447-1-1-1h-1v-3c0-0.553-0.447-1-1-1h-3v2h2v2h-6v-4h-2v4h-6v-2h2v-2h-3   c-0.553,0-1,0.447-1,1v3H8c-0.553,0-1,0.447-1,1v3H2c-0.553,0-1,0.447-1,1v36c0,0.553,0.447,1,1,1h6c0.553,0,1-0.447,1-1v-5h46v5   c0,0.553,0.447,1,1,1h6c0.553,0,1-0.447,1-1V26C63,25.447,62.553,25,62,25z M7,27h1h20h8h20h1v2H7V27z M37,23h18v2H37V23z M9,23h18   v2H9V23z M46,55H18V45h28V55z M61,61h-4v-5c0-0.553-0.447-1-1-1h-8V44c0-0.553-0.447-1-1-1H17c-0.553,0-1,0.447-1,1v11H8   c-0.553,0-1,0.447-1,1v5H3V27h2v3c0,0.553,0.447,1,1,1h52c0.553,0,1-0.447,1-1v-3h2V61z"/><path d="M14.707,10.121C14.894,10.308,15,10.565,15,10.828v0.344c0,0.263-0.106,0.521-0.293,0.707l-1.414,1.414l1.414,1.414   l1.414-1.414C16.688,12.727,17,11.973,17,11.172v-0.344c0-0.801-0.312-1.555-0.879-2.121l-0.828-0.828   C15.106,7.692,15,7.435,15,7.172V6.828c0-0.263,0.106-0.521,0.293-0.707l1.414-1.414l-1.414-1.414l-1.414,1.414   C13.312,5.273,13,6.027,13,6.828v0.344c0,0.801,0.312,1.555,0.879,2.121L14.707,10.121z"/><path d="M20.707,8.121C20.894,8.308,21,8.565,21,8.828v0.344c0,0.263-0.106,0.521-0.293,0.707l-1.414,1.414l1.414,1.414   l1.414-1.414C22.688,10.727,23,9.973,23,9.172V8.828c0-0.801-0.312-1.555-0.879-2.121l-0.828-0.828C21.106,5.692,21,5.435,21,5.172   V4.828c0-0.263,0.106-0.521,0.293-0.707l1.414-1.414l-1.414-1.414l-1.414,1.414C19.312,3.273,19,4.027,19,4.828v0.344   c0,0.801,0.312,1.555,0.879,2.121L20.707,8.121z"/><path d="M42.707,10.121C42.894,10.308,43,10.565,43,10.828v0.344c0,0.263-0.106,0.521-0.293,0.707l-1.414,1.414l1.414,1.414   l1.414-1.414C44.688,12.727,45,11.973,45,11.172v-0.344c0-0.801-0.312-1.555-0.879-2.121l-0.828-0.828   C43.106,7.692,43,7.435,43,7.172V6.828c0-0.263,0.106-0.521,0.293-0.707l1.414-1.414l-1.414-1.414l-1.414,1.414   C41.312,5.273,41,6.027,41,6.828v0.344c0,0.801,0.312,1.555,0.879,2.121L42.707,10.121z"/><path d="M48.707,8.121C48.894,8.308,49,8.565,49,8.828v0.344c0,0.263-0.106,0.521-0.293,0.707l-1.414,1.414l1.414,1.414   l1.414-1.414C50.688,10.727,51,9.973,51,9.172V8.828c0-0.801-0.312-1.555-0.879-2.121l-0.828-0.828C49.106,5.692,49,5.435,49,5.172   V4.828c0-0.263,0.106-0.521,0.293-0.707l1.414-1.414l-1.414-1.414l-1.414,1.414C47.312,3.273,47,4.027,47,4.828v0.344   c0,0.801,0.312,1.555,0.879,2.121L48.707,8.121z"/><path d="M17,33c-2.206,0-4,1.794-4,4s1.794,4,4,4s4-1.794,4-4S19.206,33,17,33z M17,39c-1.103,0-2-0.897-2-2s0.897-2,2-2   s2,0.897,2,2S18.103,39,17,39z"/><path d="M47,33c-2.206,0-4,1.794-4,4s1.794,4,4,4s4-1.794,4-4S49.206,33,47,33z M47,39c-1.103,0-2-0.897-2-2s0.897-2,2-2   s2,0.897,2,2S48.103,39,47,39z"/><rect x="9" y="33" width="2" height="2"/><rect x="9" y="39" width="2" height="2"/><rect x="5" y="33" width="2" height="2"/><rect x="5" y="39" width="2" height="2"/><rect x="57" y="33" width="2" height="2"/><rect x="57" y="39" width="2" height="2"/><rect x="53" y="33" width="2" height="2"/><rect x="53" y="39" width="2" height="2"/><path d="M40,35H24c-0.553,0-1,0.447-1,1v4c0,0.553,0.447,1,1,1h16c0.553,0,1-0.447,1-1v-4C41,35.447,40.553,35,40,35z M39,39H25v-2   h14V39z"/><rect x="22" y="47" width="20" height="2"/></g></svg>