<?xml version="1.0" encoding="iso-8859-1"?>
<!-- Generator: Adobe Illustrator 22.1.0, SVG Export Plug-In . SVG Version: 6.00 Build 0)  -->
<svg version="1.1" xmlns="http://www.w3.org/2000/svg" xmlns:xlink="http://www.w3.org/1999/xlink" x="0px" y="0px"
	 viewBox="0 0 128 128" style="enable-background:new 0 0 128 128;" xml:space="preserve">
<g id="_x36_">
	<rect x="110.709" y="51.113" style="fill:#F26071;" width="16.036" height="27.978"/>
	<circle style="fill:#FD9E00;" cx="67.043" cy="101.437" r="13.165"/>
	<path style="fill:#231F20;" d="M19.991,58.054h-8.74V28.092h19.958c0.402,7.594,6.689,13.653,14.381,13.653
		s13.978-6.059,14.38-13.653h17.15v-2.51H59.893c-0.865-7.131-6.943-12.677-14.303-12.677S32.15,18.451,31.286,25.582H8.741v32.472
		H0v2.51h19.991V58.054z M38.109,36.58l7.481-7.48l7.48,7.48c-2.046,1.657-4.648,2.655-7.48,2.655
		C42.757,39.235,40.155,38.237,38.109,36.58z M54.844,34.805l-7.48-7.48l7.48-7.481c1.657,2.046,2.655,4.648,2.655,7.481
		C57.499,30.157,56.501,32.759,54.844,34.805z M53.069,18.07l-7.48,7.48l-7.48-7.48c2.046-1.657,4.648-2.655,7.48-2.655
		C48.422,15.415,51.023,16.412,53.069,18.07z M36.334,19.844l7.48,7.48l-7.48,7.48c-1.657-2.046-2.655-4.648-2.655-7.48
		C33.68,24.492,34.677,21.891,36.334,19.844z M128,49.864h-8.019V25.581H98.296l-20.493-13.44l-1.368,2.096l21.107,13.854h19.928
		v21.773h-8.019v30.482h8.019v19.84H81.405c-0.627-7.366-6.839-13.164-14.369-13.164c-7.517,0-13.729,5.798-14.356,13.164H11.256
		V70.123h8.734v-2.51H0v2.51h8.747v32.572h43.934c0.627,7.366,6.839,13.164,14.356,13.164c7.529,0,13.741-5.798,14.369-13.164
		h38.576v-22.35H128V49.864z M67.037,113.349c-6.136,0-11.219-4.681-11.846-10.654c-0.038-0.414-0.063-0.828-0.063-1.255
		c0-0.427,0.025-0.841,0.063-1.255c0.627-5.986,5.71-10.654,11.846-10.654c6.149,0,11.231,4.668,11.859,10.654
		c0.038,0.414,0.063,0.828,0.063,1.255c0,0.427-0.025,0.841-0.063,1.255C78.268,108.668,73.186,113.349,67.037,113.349z
		 M125.49,77.835h-5.509h-2.51h-5.509V52.373h5.509h2.51h5.509V77.835z"/>
</g>
<g id="Layer_1">
</g>
</svg>
