<svg xmlns="http://www.w3.org/2000/svg" xmlns:xlink="http://www.w3.org/1999/xlink" viewBox="0 0 32 40" version="1.1" x="0px" y="0px"><title>da-icons-cloudy copy 3</title><desc>Created with Sketch.</desc><g stroke="none" stroke-width="1" fill="none" fill-rule="evenodd"><g fill-rule="nonzero" fill="#000000"><path d="M2,8 L2,24 L30,24 L30,8 L2,8 Z M1,7 L31,7 L31,25 L1,25 L1,7 Z M3,9 L19,9 L19,23 L3,23 L3,9 Z M4,10 L4,22 L18,22 L18,10 L4,10 Z M22,7 L23,7 L23,25 L22,25 L22,7 Z M20,10 L21,10 L21,22 L20,22 L20,10 Z M24,14 L25,14 L25,15 L24,15 L24,14 Z M24,16 L25,16 L25,17 L24,17 L24,16 Z M26,14 L27,14 L27,15 L26,15 L26,14 Z M26,16 L27,16 L27,17 L26,17 L26,16 Z M28,14 L29,14 L29,15 L28,15 L28,14 Z M28,16 L29,16 L29,17 L28,17 L28,16 Z M24,18 L25,18 L25,19 L24,19 L24,18 Z M26,18 L27,18 L27,19 L26,19 L26,18 Z M28,18 L29,18 L29,19 L28,19 L28,18 Z M24,10 L29,10 L29,12 L24,12 L24,10 Z M25,21 L28,21 L28,23 L25,23 L25,21 Z M1,24 L4,24 L4,26 L1,26 L1,24 Z M28,24 L31,24 L31,26 L28,26 L28,24 Z"/></g></g></svg>