<svg xmlns="http://www.w3.org/2000/svg" xmlns:xlink="http://www.w3.org/1999/xlink" version="1.1" x="0px" y="0px" viewBox="0 0 512 640" style="enable-background:new 0 0 512 512;" xml:space="preserve"><g><g><path d="M415.667,16H96.333C79.607,16,66,29.607,66,46.333v419.333C66,482.393,79.607,496,96.333,496h319.333    C432.393,496,446,482.393,446,465.667V46.333C446,29.607,432.393,16,415.667,16z M426,46.333V96H176V36h239.667    C421.364,36,426,40.636,426,46.333z M96.333,36H156v60H86V46.333C86,40.636,90.636,36,96.333,36z M415.667,476H96.333    C90.636,476,86,471.364,86,465.667V116h340v349.667C426,471.364,421.364,476,415.667,476z"/><path d="M256,86c11.028,0,20-8.972,20-20s-8.972-20-20-20c-11.028,0-20,8.972-20,20S244.972,86,256,86z"/><path d="M316,86c11.028,0,20-8.972,20-20s-8.972-20-20-20s-20,8.972-20,20S304.972,86,316,86z"/><path d="M376,86c11.028,0,20-8.972,20-20s-8.972-20-20-20s-20,8.972-20,20S364.972,86,376,86z"/><path d="M206,316c-11.028,0-20,8.972-20,20s8.972,20,20,20s20-8.972,20-20S217.028,316,206,316z"/><path d="M296,326c-11.028,0-20,8.972-20,20s8.972,20,20,20s20-8.972,20-20S307.028,326,296,326z"/><path d="M246,356c-11.028,0-20,8.972-20,20s8.972,20,20,20c11.028,0,20-8.972,20-20S257.028,356,246,356z"/><path d="M256,166c-71.682,0-130,58.318-130,130c0,72.035,58.801,130,130,130c70.61,0,128.101-56.224,129.952-126.518    C387.879,226.356,328.977,166,256,166z M256,186c58.802,0,106.976,46.379,109.863,104.478    c-27.008,3.42-81.026,8.248-105.543-3.496c-34.151-16.357-80.019-6.923-114.32,9.123C146,235.135,195.514,186,256,186z M256,406    c-52.635,0-97.873-37.641-107.917-88.615c10.854-5.615,21.558-9.844,32.111-12.932c22.424-6.578,50.39-9.538,71.486,0.565    c28.609,13.705,81.934,9.499,113.356,5.718C357.909,365.02,312.088,406,256,406z"/></g></g></svg>